<svg width="20" height="20" viewBox="0 0 20 20" fill="none" xmlns="http://www.w3.org/2000/svg">
<mask id="mask0" mask-type="alpha" maskUnits="userSpaceOnUse" x="0" y="0" width="20" height="20">
<rect width="20" height="20" fill="#C4C4C4"/>
</mask>
<g mask="url(#mask0)">
<path d="M8.48125 3.03752C8.48125 3.02957 8.47695 3.01764 8.47695 3.00174V2.75528C8.47695 2.33789 8.84696 2 9.30301 2H11.2907C11.7468 2 12.1168 2.33789 12.1168 2.75528V3.00174C12.1168 3.01366 12.1125 3.02559 12.1125 3.03752H8.48125ZM17 4.56398C17 4.15056 16.6214 3.8087 16.161 3.8087H3.83897C3.37861 3.8087 3 4.15056 3 4.56398V5.3272H17V4.56398ZM3.5421 6.14211L4.91887 16.5053C5.02643 17.3282 5.85249 18 6.75599 18H13.2311C14.1389 18 14.965 17.3242 15.0725 16.5053L16.4493 6.14211H3.5421ZM7.79287 16.0879C7.71543 16.1754 7.59496 16.235 7.46159 16.247C7.44438 16.247 7.42717 16.2509 7.40996 16.2509C7.16902 16.2509 6.96681 16.1039 6.941 15.9091L5.95144 8.22112C5.93854 8.12969 5.96865 8.03429 6.03749 7.95876C6.11494 7.8713 6.2354 7.81168 6.36878 7.79975C6.38599 7.79975 6.4032 7.79578 6.42041 7.79578C6.66134 7.79578 6.86355 7.94286 6.88506 8.13764L7.87462 15.8256C7.89183 15.921 7.85741 16.0124 7.79287 16.0879ZM10.5894 15.8932C10.5894 16.1039 10.3743 16.2748 10.1162 16.2748C9.85802 16.2748 9.6472 16.1039 9.6472 15.8932V8.15752C9.6472 7.94683 9.86232 7.7759 10.1205 7.7759C10.3786 7.7759 10.5894 7.94683 10.5894 8.15752V15.8932ZM13.2569 15.9091C13.2311 16.1039 13.0332 16.2509 12.7923 16.2509L12.7406 16.247C12.6073 16.235 12.4868 16.1794 12.4093 16.0879C12.3405 16.0124 12.3104 15.917 12.3233 15.8216L13.3128 8.13366C13.3387 7.93888 13.5366 7.7918 13.7775 7.7918C13.7947 7.7918 13.8119 7.7918 13.8291 7.79578C13.9625 7.8077 14.083 7.86335 14.1604 7.95478C14.2293 8.03031 14.2594 8.12571 14.2465 8.21714L13.2569 15.9091Z" fill="#5B6671"/>
</g>
</svg>
