<svg width="20" height="20" viewBox="0 0 20 20" fill="none" xmlns="http://www.w3.org/2000/svg">
<mask id="mask0" mask-type="alpha" maskUnits="userSpaceOnUse" x="0" y="0" width="20" height="20">
<rect width="20" height="20" fill="#C4C4C4"/>
</mask>
<g mask="url(#mask0)">
<path d="M17.5308 11.6614C17.2995 11.6614 17.1121 11.8489 17.1121 12.0802V15.7988C17.1112 16.4923 16.5493 17.0544 15.8557 17.0552H4.10472C3.41109 17.0544 2.84915 16.4923 2.84833 15.7988V4.88548C2.84915 4.19185 3.41109 3.62991 4.10472 3.62909H7.82315C8.05447 3.62909 8.24195 3.44162 8.24195 3.2103C8.24195 2.97898 8.05447 2.7915 7.82315 2.7915H4.10472C2.94878 2.79281 2.01205 3.72954 2.01074 4.88548V15.7988C2.01205 16.9548 2.94878 17.8915 4.10472 17.8928H15.8557C17.0116 17.8915 17.9483 16.9548 17.9496 15.7988V12.0804C17.9496 11.8491 17.7622 11.6614 17.5308 11.6614Z" fill="white"/>
<path d="M8.55933 9.45783L14.6742 3.34277L16.6463 5.31487L10.5314 11.4299L8.55933 9.45783Z" fill="white"/>
<path d="M7.56177 12.4274L9.74114 11.8238L8.16542 10.248L7.56177 12.4274Z" fill="white"/>
<path d="M17.1914 2.30612C16.7823 1.89796 16.1199 1.89796 15.7108 2.30612L15.2666 2.75027L17.2387 4.72237L17.6828 4.27822C18.0912 3.86908 18.0912 3.20669 17.6828 2.79755L17.1914 2.30612Z" fill="white"/>
</g>
</svg>
