<svg width="16" height="16" viewBox="0 0 16 16" fill="none" xmlns="http://www.w3.org/2000/svg">
<path d="M15.1198 0.880127C14.5332 0.293412 13.8265 0 13.0002 0H3.0001C2.17379 0 1.46707 0.293412 0.88025 0.880127C0.293535 1.46695 0.00012207 2.17363 0.00012207 2.99998V12.9999C0.00012207 13.8262 0.293535 14.533 0.88025 15.1198C1.46707 15.7066 2.17379 16 3.0001 16H13.0001C13.8264 16 14.5331 15.7066 15.1197 15.1198C15.7065 14.533 15.9999 13.8262 15.9999 12.9999V2.99998C15.9999 2.17363 15.7064 1.46684 15.1198 0.880127ZM5.66672 13.3333H2.66667V10.3332L8.33337 4.66665L11.3332 7.66659L5.66672 13.3333ZM12.9584 6.04162L12.0002 7.00004L9.0001 3.99992L9.95827 3.04164C10.1528 2.84736 10.3888 2.75002 10.6667 2.75002C10.9444 2.75002 11.1806 2.84721 11.3749 3.04164L12.9583 4.62502C13.1526 4.81937 13.25 5.05547 13.25 5.33334C13.25 5.6111 13.1529 5.84716 12.9584 6.04162Z" fill="#5B6671"/>
<path d="M3.66675 10.75V11.3331H4.66673V12.3333H5.24998L5.79171 11.7916L4.20837 10.2081L3.66675 10.75Z" fill="#5B6671"/>
<path d="M5.17722 9.20818C5.05911 9.32603 5.04875 9.43016 5.14587 9.52057C5.23614 9.61798 5.34034 9.60748 5.45841 9.48937L8.48962 6.4581C8.60772 6.34025 8.61801 6.23605 8.52081 6.14575C8.4304 6.04844 8.32642 6.05881 8.20843 6.17694L5.17722 9.20818Z" fill="#5B6671"/>
</svg>
