<svg width="16" height="18" viewBox="0 0 16 18" fill="none" xmlns="http://www.w3.org/2000/svg">
<path d="M15.4456 13.9873L12.835 10.879C13.3791 9.93512 13.6954 8.9122 13.7924 7.81902C13.9484 5.90488 13.3833 4.04341 12.1982 2.5639C11.0089 1.09317 9.33881 0.18878 7.50847 0.0263415C7.30603 0.0131707 7.10782 0 6.90538 0C3.35857 0 0.334713 2.88439 0.0268446 6.5678C-0.133416 8.47756 0.427495 10.3434 1.61258 11.8141C2.80188 13.2849 4.46774 14.1893 6.30651 14.3561C6.50051 14.3737 6.69451 14.3824 6.88008 14.3824C6.88429 14.3824 6.88851 14.3824 6.89273 14.3824H6.89695C7.68138 14.3824 8.45738 14.242 9.19963 13.9654L11.865 17.1263C12.2699 17.6268 12.835 17.9341 13.4507 17.9912C13.5182 17.9956 13.5815 18 13.6532 18C13.6574 18 13.6574 18 13.6616 18C14.2014 18 14.737 17.798 15.163 17.4293C15.6438 17.0122 15.939 16.4239 15.9896 15.7741C16.0486 15.1244 15.8546 14.4922 15.4456 13.9873ZM11.2872 7.58195C11.089 9.92195 9.17433 11.7527 6.91803 11.7527C6.7873 11.7527 6.66077 11.7483 6.53425 11.7351C4.12192 11.5156 2.33375 9.29854 2.54883 6.78732C2.74283 4.45171 4.65752 2.62098 6.9096 2.62098C7.04034 2.62098 7.17108 2.62976 7.2976 2.63854C9.70572 2.85805 11.4981 5.07512 11.2872 7.58195Z" fill="#C4C4C4"/>
</svg>
