<svg width="20" height="16" viewBox="0 0 20 16" fill="none" xmlns="http://www.w3.org/2000/svg">
<path d="M2.49999 4.42854H0.357097C0.260386 4.42854 0.176692 4.46373 0.106015 4.53444C0.0352992 4.6052 0 4.68893 0 4.78568V6.92853C0 7.02521 0.0352992 7.10909 0.106015 7.17965C0.176731 7.25013 0.260386 7.28567 0.357097 7.28567H2.49999C2.5967 7.28567 2.6804 7.25029 2.75107 7.17965C2.82179 7.10894 2.85709 7.02521 2.85709 6.92853V4.78568C2.85709 4.68893 2.82175 4.6052 2.75107 4.53444C2.6804 4.46384 2.5967 4.42854 2.49999 4.42854Z" fill="white"/>
<path d="M2.49999 13.0001H0.357097C0.260386 13.0001 0.176692 13.0352 0.106015 13.106C0.0352992 13.1767 0 13.2603 0 13.3571V15.5001C0 15.5967 0.0352992 15.6803 0.106015 15.7511C0.176731 15.8219 0.260386 15.8572 0.357097 15.8572H2.49999C2.5967 15.8572 2.6804 15.8219 2.75107 15.7511C2.82179 15.6804 2.85709 15.5967 2.85709 15.5001V13.3571C2.85709 13.2603 2.82175 13.1767 2.75107 13.1059C2.6804 13.0354 2.5967 13.0001 2.49999 13.0001Z" fill="white"/>
<path d="M2.49999 8.714H0.357097C0.260386 8.714 0.176692 8.74957 0.106015 8.82009C0.0353383 8.89061 0 8.97462 0 9.07121V11.214C0 11.3109 0.0352992 11.3946 0.106015 11.4652C0.176731 11.5359 0.260386 11.571 0.357097 11.571H2.49999C2.5967 11.571 2.6804 11.536 2.75107 11.4652C2.82179 11.3946 2.85709 11.3109 2.85709 11.214V9.07121C2.85709 8.97462 2.82175 8.89088 2.75107 8.82009C2.6804 8.74945 2.5967 8.714 2.49999 8.714Z" fill="white"/>
<path d="M2.49999 0.142822H0.357097C0.260386 0.142822 0.176692 0.178121 0.106015 0.248837C0.0353383 0.319553 0 0.403247 0 0.499958V2.64281C0 2.73956 0.0352992 2.82322 0.106015 2.89393C0.176731 2.96465 0.260386 2.99995 0.357097 2.99995H2.49999C2.5967 2.99995 2.6804 2.96477 2.75107 2.89393C2.82179 2.82322 2.85709 2.73956 2.85709 2.64281V0.499958C2.85709 0.403208 2.82175 0.319553 2.75107 0.248837C2.6804 0.178317 2.5967 0.142822 2.49999 0.142822Z" fill="white"/>
<path d="M19.6427 13.0001H4.64274C4.54603 13.0001 4.46234 13.0352 4.39166 13.106C4.32094 13.1767 4.28564 13.2603 4.28564 13.3572V15.5001C4.28564 15.5967 4.32094 15.6803 4.39166 15.7511C4.46237 15.822 4.54591 15.8572 4.64274 15.8572H19.6427C19.7396 15.8572 19.8231 15.8219 19.8939 15.7511C19.9647 15.6803 19.9999 15.5967 19.9999 15.5001V13.3572C19.9999 13.2603 19.9646 13.1767 19.8939 13.106C19.8231 13.0354 19.7395 13.0001 19.6427 13.0001Z" fill="white"/>
<path d="M19.6427 8.714H4.64274C4.54603 8.714 4.46234 8.74957 4.39166 8.82009C4.32098 8.89061 4.28564 8.97462 4.28564 9.07121V11.214C4.28564 11.3109 4.32094 11.3946 4.39166 11.4652C4.46237 11.5359 4.54591 11.571 4.64274 11.571H19.6427C19.7396 11.571 19.8231 11.536 19.8939 11.4652C19.9647 11.3946 19.9999 11.3109 19.9999 11.214V9.07121C19.9999 8.97462 19.9646 8.89088 19.8939 8.82009C19.8231 8.74957 19.7395 8.714 19.6427 8.714Z" fill="white"/>
<path d="M19.8939 0.248837C19.8231 0.178278 19.7396 0.142822 19.6427 0.142822H4.64274C4.54603 0.142822 4.46234 0.178121 4.39166 0.248837C4.32098 0.319553 4.28564 0.403208 4.28564 0.499958V2.64281C4.28564 2.73956 4.32094 2.82322 4.39166 2.89393C4.46237 2.96465 4.54591 2.99995 4.64274 2.99995H19.6427C19.7396 2.99995 19.8231 2.96477 19.8939 2.89393C19.9647 2.82322 19.9999 2.73956 19.9999 2.64281V0.499958C19.9998 0.403247 19.9645 0.319553 19.8939 0.248837Z" fill="white"/>
<path d="M19.6427 4.42854H4.64274C4.54603 4.42854 4.46234 4.46373 4.39166 4.53444C4.32094 4.6052 4.28564 4.68893 4.28564 4.78568V6.92853C4.28564 7.02521 4.32094 7.10894 4.39166 7.17965C4.46237 7.25013 4.54591 7.28567 4.64274 7.28567H19.6427C19.7396 7.28567 19.8231 7.25029 19.8939 7.17965C19.9647 7.10894 19.9999 7.02521 19.9999 6.92853V4.78568C19.9999 4.68893 19.9646 4.6052 19.8939 4.53444C19.8231 4.46384 19.7395 4.42854 19.6427 4.42854Z" fill="white"/>
</svg>
