<svg width="16" height="16" viewBox="0 0 16 16" fill="none" xmlns="http://www.w3.org/2000/svg">
<path d="M14 12.887C14 12.0053 13.5275 11.2028 12.7885 10.8635C11.863 10.4383 10.3415 10 8 10C5.6585 10 4.137 10.4383 3.2115 10.8635C2.4725 11.2028 2 12.0053 2 12.887V15.5H14V12.887Z" stroke="#20117F" stroke-miterlimit="10" stroke-linecap="square"/>
<path d="M8 8.5C6.067 8.5 4.5 6.933 4.5 5V4C4.5 2.067 6.067 0.5 8 0.5C9.933 0.5 11.5 2.067 11.5 4V5C11.5 6.933 9.933 8.5 8 8.5Z" stroke="#20117F" stroke-miterlimit="10" stroke-linecap="square"/>
<path d="M8.5 12H11.5V13C11.5 13.8284 10.8284 14.5 10 14.5V14.5C9.17157 14.5 8.5 13.8284 8.5 13V12Z" stroke="#F0BC14" stroke-linecap="round"/>
</svg>
