<svg width="16" height="16" viewBox="0 0 16 16" fill="none" xmlns="http://www.w3.org/2000/svg">
<path d="M12.5 0.5L6.39198 6.577C5.48063 6.33277 4.51416 6.39609 3.64247 6.75714C2.77077 7.11818 2.04257 7.75677 1.57081 8.57387C1.09904 9.39096 0.910075 10.3409 1.03322 11.2763C1.15637 12.2118 1.58474 13.0804 2.2519 13.7476C2.91906 14.4147 3.78772 14.8431 4.72315 14.9663C5.65859 15.0894 6.60852 14.9004 7.42561 14.4287C8.24271 13.9569 8.8813 13.2287 9.24234 12.357C9.60339 11.4853 9.66671 10.5188 9.42248 9.6075L10.5 8.5V6.5H12.5V4.5H14L15.5 3V0.5H12.5Z" stroke="#20117F" stroke-miterlimit="10" stroke-linecap="round" stroke-linejoin="round"/>
<path d="M5 12.5C5.82843 12.5 6.5 11.8284 6.5 11C6.5 10.1716 5.82843 9.5 5 9.5C4.17157 9.5 3.5 10.1716 3.5 11C3.5 11.8284 4.17157 12.5 5 12.5Z" stroke="#F0BC14" stroke-miterlimit="10" stroke-linecap="round" stroke-linejoin="round"/>
</svg>
